<?xml version="1.0" encoding="UTF-8" standalone="no" ?>
<!DOCTYPE svg PUBLIC "-//W3C//DTD SVG 1.1//EN" "http://www.w3.org/Graphics/SVG/1.1/DTD/svg11.dtd">
<svg xmlns="http://www.w3.org/2000/svg" xmlns:xlink="http://www.w3.org/1999/xlink" version="1.1" width="65mm" height="65mm" viewBox="0 1.4210854715202004e-14 184.25196999999997 184.25196999999997" xml:space="preserve">
<desc>Created with Fabric.js 4.6.0</desc>
<defs>
</defs>
<g transform="matrix(1 0 0 1 92.25 92.25)" id="M0ZtzEm817Sb0lsYPJHWi"  >
<path style="stroke: rgb(0,47,167); stroke-width: 2.83465; stroke-dasharray: none; stroke-linecap: butt; stroke-dashoffset: 0; stroke-linejoin: miter; stroke-miterlimit: 4; fill: none; fill-rule: nonzero; opacity: 1;" vector-effect="non-scaling-stroke"  transform=" translate(-87.87, -87.87)" d="M 0 0 L 175.74803 0 L 175.74803 175.74803 L 0 175.74803 z" stroke-linecap="round" />
</g>
<g transform="matrix(2.12 0 0 2.12 92.13 92.13)" id="auwIIgBk8QC78ugfOPbQ1"  >
<path style="stroke: rgb(0,47,167); stroke-width: 0; stroke-dasharray: none; stroke-linecap: butt; stroke-dashoffset: 0; stroke-linejoin: miter; stroke-miterlimit: 4; fill: rgb(0,47,167); fill-rule: nonzero; opacity: 1;" vector-effect="non-scaling-stroke"  transform=" translate(0, 0)" d="M 16.72 -23.12 L 13.44 -20.16 C 11.893329999999999 -22.02667 10.10667 -23.45333 8.079999999999998 -24.44 C 6.053329999999998 -25.42667 3.679999999999998 -25.92 0.9599999999999982 -25.92 L 0.9599999999999982 -25.92 C -0.5866700000000018 -25.92 -2.1333300000000017 -25.693330000000003 -3.6800000000000015 -25.240000000000002 C -5.226670000000001 -24.78667 -6.626670000000002 -24.080000000000002 -7.880000000000002 -23.12 C -9.13333 -22.16 -10.160000000000002 -20.96 -10.96 -19.52 C -11.760000000000002 -18.08 -12.16 -16.4 -12.16 -14.48 L -12.16 -14.48 C -12.16 -12.4 -11.73333 -10.69333 -10.88 -9.36 C -10.026670000000001 -8.02667 -8.90667 -6.893329999999999 -7.520000000000001 -5.959999999999999 C -6.133330000000001 -5.026669999999999 -4.5466700000000015 -4.253329999999999 -2.7600000000000016 -3.6399999999999992 C -0.9733300000000016 -3.0266699999999993 0.8533299999999984 -2.3999999999999995 2.719999999999999 -1.7599999999999993 C 4.586669999999999 -1.1199999999999992 6.413329999999998 -0.42666999999999944 8.2 0.32000000000000073 C 9.98667 1.0666700000000007 11.573329999999999 2.0133300000000007 12.959999999999999 3.1600000000000006 C 14.34667 4.30667 15.466669999999999 5.7333300000000005 16.32 7.440000000000001 C 17.17333 9.14667 17.6 11.280000000000001 17.6 13.840000000000002 L 17.6 13.840000000000002 C 17.6 16.560000000000002 17.080000000000002 18.92 16.040000000000003 20.92 C 15.000000000000004 22.92 13.640000000000002 24.58667 11.960000000000003 25.92 C 10.280000000000003 27.253330000000002 8.346670000000003 28.240000000000002 6.160000000000003 28.880000000000003 C 3.973330000000003 29.520000000000003 1.7600000000000025 29.840000000000003 -0.4799999999999969 29.840000000000003 L -0.4799999999999969 29.840000000000003 C -4.159999999999997 29.840000000000003 -7.426669999999997 29.133330000000004 -10.279999999999998 27.720000000000002 C -13.133329999999997 26.306670000000004 -15.573329999999999 24.29333 -17.599999999999998 21.680000000000003 L -17.599999999999998 21.680000000000003 L -14.399999999999999 18.880000000000003 C -12.37333 21.28 -10.239999999999998 23.040000000000003 -7.999999999999998 24.160000000000004 C -5.759999999999998 25.280000000000005 -3.2533299999999983 25.840000000000003 -0.47999999999999865 25.840000000000003 L -0.47999999999999865 25.840000000000003 C 1.1733300000000013 25.840000000000003 2.800000000000001 25.586670000000005 4.400000000000001 25.080000000000002 C 6.000000000000002 24.573330000000002 7.440000000000001 23.82667 8.720000000000002 22.840000000000003 C 10.000000000000002 21.853330000000003 11.026670000000003 20.626670000000004 11.800000000000002 19.160000000000004 C 12.573330000000002 17.693330000000003 12.960000000000003 16.000000000000004 12.960000000000003 14.080000000000004 L 12.960000000000003 14.080000000000004 C 12.960000000000003 12.000000000000004 12.533330000000003 10.280000000000005 11.680000000000003 8.920000000000003 C 10.826670000000004 7.560000000000003 9.706670000000003 6.400000000000004 8.320000000000004 5.440000000000003 C 6.933330000000003 4.480000000000003 5.346670000000004 3.6800000000000033 3.560000000000004 3.040000000000003 C 1.773330000000004 2.400000000000003 -0.03999999999999604 1.7600000000000031 -1.8799999999999963 1.1200000000000032 C -3.719999999999996 0.4800000000000032 -5.533329999999996 -0.2133299999999967 -7.319999999999997 -0.9599999999999969 C -9.106669999999998 -1.7066699999999968 -10.693329999999996 -2.6666699999999968 -12.079999999999997 -3.8399999999999967 C -13.466669999999997 -5.013329999999996 -14.586669999999996 -6.453329999999997 -15.439999999999996 -8.159999999999997 C -16.293329999999997 -9.866669999999996 -16.719999999999995 -11.973329999999997 -16.719999999999995 -14.479999999999997 L -16.719999999999995 -14.479999999999997 C -16.719999999999995 -17.093329999999998 -16.186669999999996 -19.359999999999996 -15.119999999999996 -21.279999999999998 C -14.053329999999995 -23.199999999999996 -12.679999999999996 -24.799999999999997 -10.999999999999996 -26.08 C -9.319999999999997 -27.36 -7.413329999999997 -28.306669999999997 -5.279999999999997 -28.919999999999998 C -3.1466699999999967 -29.53333 -0.9866699999999966 -29.84 1.2000000000000037 -29.84 L 1.2000000000000037 -29.84 C 4.933330000000003 -29.84 8.093330000000003 -29.18667 10.680000000000003 -27.88 C 13.266670000000003 -26.57333 15.280000000000003 -24.98667 16.720000000000002 -23.119999999999997 z" stroke-linecap="round" />
</g>
</svg>