<?xml version="1.0" standalone="no"?>
<!DOCTYPE svg PUBLIC "-//W3C//DTD SVG 20010904//EN"
 "http://www.w3.org/TR/2001/REC-SVG-20010904/DTD/svg10.dtd">
<svg version="1.0" xmlns="http://www.w3.org/2000/svg"
 width="700.000000pt" height="700.000000pt" viewBox="0 0 700.000000 700.000000"
 preserveAspectRatio="xMidYMid meet">
<metadata>
Created by potrace 1.14, written by Peter Selinger 2001-2017
</metadata>
<g transform="translate(0.000000,700.000000) scale(0.100000,-0.100000)"
fill="#000000" stroke="none">
<path d="M150 3496 l0 -3354 3353 2 3352 1 0 3350 0 3350 -3352 3 -3353 2 0
-3354z m6680 -1 l0 -3325 -3325 0 -3325 0 0 3325 0 3325 3325 0 3325 0 0
-3325z"/>
<path d="M3547 5905 c-1 -1 -42 -5 -92 -9 -49 -3 -101 -8 -115 -10 -14 -3 -41
-7 -60 -10 -48 -8 -71 -13 -114 -24 -20 -6 -36 -9 -36 -7 0 2 -56 -16 -123
-39 -471 -161 -796 -539 -844 -981 -15 -131 -6 -333 18 -445 78 -359 349 -650
764 -818 33 -13 83 -33 110 -44 47 -18 444 -161 695 -250 281 -100 484 -227
617 -387 127 -154 178 -305 175 -526 -1 -146 -28 -268 -84 -379 -139 -276
-396 -459 -748 -532 -134 -28 -414 -25 -555 6 -272 59 -513 206 -744 452 -35
37 -68 68 -73 68 -5 0 -64 -48 -132 -108 l-124 -107 31 -40 c61 -78 234 -241
325 -305 193 -136 423 -237 626 -276 12 -2 32 -6 46 -9 93 -18 204 -26 345
-26 173 0 238 7 434 46 139 27 337 108 469 192 238 151 433 409 510 673 47
161 62 448 32 610 -7 36 -14 76 -17 89 -38 208 -218 459 -433 607 -184 126
-320 184 -935 396 -347 119 -483 178 -609 262 -189 127 -305 277 -358 463 -31
110 -31 341 1 457 97 363 446 637 870 683 118 13 328 7 436 -12 240 -44 488
-182 663 -369 34 -37 67 -66 71 -64 5 2 48 39 96 83 49 44 103 93 121 109 19
16 34 34 34 41 0 20 -152 169 -232 228 -205 150 -446 253 -663 283 -27 3 -59
8 -70 11 -27 5 -323 21 -328 18z"/>
</g>
</svg>
