<?xml version="1.0" standalone="no"?>
<!DOCTYPE svg PUBLIC "-//W3C//DTD SVG 20010904//EN"
 "http://www.w3.org/TR/2001/REC-SVG-20010904/DTD/svg10.dtd">
<svg version="1.0" xmlns="http://www.w3.org/2000/svg"
 width="700.000000pt" height="700.000000pt" viewBox="0 0 700.000000 700.000000"
 preserveAspectRatio="xMidYMid meet">
<metadata>
Created by potrace 1.14, written by Peter Selinger 2001-2017
</metadata>
<g transform="translate(0.000000,700.000000) scale(0.100000,-0.100000)"
fill="#000000" stroke="none">
<path d="M4 3502 l0 -3499 3496 0 3497 0 0 3499 -1 3498 -3496 0 -3496 0 0
-3498z m6670 1 c1 -2107 -2 -3174 -9 -3176 -20 -5 -6321 0 -6331 5 -5 4 -8
1182 -7 3150 0 1728 2 3155 2 3169 l1 25 3172 0 3172 -1 0 -3172z"/>
<path d="M3547 5905 c-1 -1 -42 -5 -92 -9 -49 -3 -101 -8 -115 -10 -14 -3 -41
-7 -60 -10 -34 -6 -65 -11 -105 -20 -64 -14 -210 -62 -275 -90 -365 -158 -635
-465 -716 -814 -39 -167 -38 -416 1 -586 83 -356 348 -637 760 -804 132 -53
174 -69 547 -202 212 -76 428 -159 480 -184 281 -137 471 -331 536 -547 39
-126 45 -306 17 -460 -36 -197 -185 -417 -367 -541 -201 -136 -422 -202 -683
-203 -169 0 -201 2 -300 22 -275 54 -503 187 -741 431 -51 52 -96 93 -101 91
-5 -2 -64 -51 -130 -109 l-121 -105 31 -40 c59 -76 234 -241 325 -305 192
-136 423 -237 626 -276 12 -2 32 -6 46 -9 189 -36 474 -36 675 0 117 22 122
23 184 40 321 91 575 268 743 519 78 116 109 180 146 297 78 242 76 594 -3
821 -69 198 -216 384 -405 514 -188 129 -335 191 -1040 432 -279 96 -368 136
-505 228 -190 126 -305 274 -356 461 -23 83 -32 274 -17 378 50 347 347 642
741 735 117 28 176 34 307 34 240 0 382 -30 580 -122 110 -51 268 -169 357
-266 57 -62 77 -76 85 -58 3 6 105 100 207 189 17 15 31 33 31 39 0 19 -154
169 -232 227 -92 68 -232 148 -334 191 -84 35 -246 80 -329 92 -27 3 -59 8
-70 11 -18 3 -91 8 -273 17 -29 1 -53 2 -55 1z"/>
</g>
</svg>
