<?xml version="1.0" encoding="UTF-8"?>
<!-- Created with Inkscape (http://www.inkscape.org/) -->
<svg width="210mm" height="210mm" version="1.1" viewBox="0 0 210 210" xmlns="http://www.w3.org/2000/svg">
 <path transform="matrix(1.7981 0 0 1.7981 -432.27 -649.22)" d="m253.38 413.68q0-0.732-0.384-1.092t-1.116-0.36q-0.504 0-0.936 0.18t-0.732 0.48l-0.456-0.54q0.348-0.348 0.912-0.576 0.576-0.228 1.296-0.228 0.456 0 0.852 0.132 0.396 0.12 0.696 0.372t0.468 0.636 0.168 0.9v2.46q0 0.324 0.024 0.672t0.072 0.588h-0.732q-0.036-0.204-0.06-0.444t-0.024-0.468h-0.024q-0.384 0.564-0.876 0.816-0.48 0.24-1.164 0.24-0.324 0-0.672-0.096-0.336-0.084-0.624-0.288-0.276-0.204-0.468-0.528-0.18-0.324-0.18-0.792 0-0.648 0.324-1.02 0.336-0.384 0.888-0.564 0.552-0.192 1.26-0.24 0.72-0.06 1.488-0.06zm-0.24 0.816q-0.504 0-1.02 0.048-0.504 0.036-0.924 0.168-0.408 0.12-0.672 0.36t-0.264 0.636q0 0.3 0.108 0.504 0.12 0.204 0.312 0.336 0.192 0.12 0.42 0.18 0.24 0.048 0.48 0.048 0.432 0 0.768-0.144 0.336-0.156 0.564-0.408 0.228-0.264 0.348-0.6t0.12-0.708v-0.42zm4.3486-1.572q0-0.228-0.012-0.588t-0.036-0.648h0.78q0.024 0.228 0.036 0.504t0.012 0.456h0.024q0.24-0.492 0.72-0.792 0.48-0.312 1.08-0.312 0.156 0 0.276 0.012 0.132 0.012 0.264 0.048l-0.108 0.768q-0.072-0.024-0.24-0.048t-0.336-0.024q-0.324 0-0.624 0.12t-0.528 0.384q-0.216 0.252-0.36 0.66-0.132 0.396-0.132 0.96v2.88h-0.816v-4.38zm9.3886 0.048q-0.204-0.324-0.6-0.528-0.384-0.216-0.84-0.216-0.492 0-0.888 0.18-0.396 0.168-0.684 0.48-0.276 0.3-0.432 0.72-0.144 0.408-0.144 0.888t0.144 0.888q0.156 0.408 0.432 0.72 0.276 0.3 0.672 0.48 0.396 0.168 0.888 0.168 0.54 0 0.912-0.204t0.612-0.528l0.612 0.456q-0.36 0.444-0.888 0.708-0.516 0.264-1.248 0.264-0.684 0-1.236-0.216-0.552-0.228-0.948-0.624-0.384-0.396-0.6-0.936t-0.216-1.176 0.216-1.176 0.6-0.936q0.396-0.396 0.948-0.612 0.552-0.228 1.236-0.228 0.564 0 1.14 0.252 0.588 0.24 0.948 0.72zm4.0606-0.36q0.228-0.492 0.756-0.78t1.128-0.288q1.068 0 1.596 0.636 0.54 0.636 0.54 1.68v3.444h-0.816v-3.108q0-0.444-0.072-0.804t-0.252-0.612q-0.168-0.264-0.468-0.408-0.288-0.144-0.732-0.144-0.324 0-0.636 0.132-0.3 0.132-0.54 0.408-0.24 0.264-0.384 0.684-0.144 0.408-0.144 0.972v2.88h-0.816v-9.072h0.816v4.38zm8.2006 4.692h-0.816v-5.616h0.816zm0.168-7.776q0 0.252-0.18 0.42-0.18 0.156-0.396 0.156t-0.396-0.156q-0.18-0.168-0.18-0.42t0.18-0.408q0.18-0.168 0.396-0.168t0.396 0.168q0.18 0.156 0.18 0.408zm5.7766 2.844h-1.584v3.276q0 0.312 0.06 0.516t0.168 0.324q0.12 0.108 0.276 0.156 0.156 0.036 0.336 0.036 0.168 0 0.348-0.048 0.192-0.048 0.36-0.132l0.036 0.708q-0.216 0.084-0.456 0.12-0.228 0.048-0.504 0.048-0.228 0-0.48-0.06t-0.468-0.228-0.36-0.456q-0.132-0.288-0.132-0.756v-3.504h-1.164v-0.684h1.164v-1.584h0.816v1.584h1.584zm6.7966 1.692q-0.036-0.792-0.516-1.308-0.468-0.528-1.344-0.528-0.408 0-0.756 0.156-0.348 0.144-0.612 0.408-0.264 0.252-0.42 0.588-0.156 0.324-0.18 0.684zm0.828 0.264q0 0.084 0 0.18t-0.012 0.204h-4.656q0.012 0.42 0.168 0.792t0.432 0.648 0.648 0.444q0.372 0.156 0.804 0.156 0.636 0 1.092-0.288 0.468-0.3 0.708-0.684l0.612 0.48q-0.504 0.636-1.116 0.912-0.6 0.276-1.296 0.276-0.624 0-1.164-0.216-0.528-0.228-0.912-0.624t-0.612-0.936q-0.216-0.54-0.216-1.176t0.216-1.176 0.6-0.936 0.9-0.612q0.516-0.228 1.116-0.228 0.66 0 1.164 0.228 0.504 0.216 0.84 0.6 0.336 0.372 0.504 0.876 0.18 0.504 0.18 1.08zm3.8326-0.108h0.036l2.592-2.532h1.176l-2.832 2.568 3.12 3.048h-1.2l-2.856-2.952h-0.036v2.952h-0.816v-9.072h0.816zm9.0526-1.848h-1.584v3.276q0 0.312 0.06 0.516t0.168 0.324q0.12 0.108 0.276 0.156 0.156 0.036 0.336 0.036 0.168 0 0.348-0.048 0.192-0.048 0.36-0.132l0.036 0.708q-0.216 0.084-0.456 0.12-0.228 0.048-0.504 0.048-0.228 0-0.48-0.06t-0.468-0.228-0.36-0.456q-0.132-0.288-0.132-0.756v-3.504h-1.164v-0.684h1.164v-1.584h0.816v1.584h1.584zm6.5926 4.932q-0.024-0.228-0.036-0.504t-0.012-0.456h-0.024q-0.24 0.492-0.78 0.804-0.54 0.3-1.14 0.3-1.068 0-1.608-0.636-0.528-0.636-0.528-1.68v-3.444h0.816v3.108q0 0.444 0.072 0.804t0.24 0.624q0.18 0.252 0.468 0.396 0.3 0.144 0.744 0.144 0.324 0 0.624-0.132 0.312-0.132 0.552-0.396 0.24-0.276 0.384-0.684 0.144-0.42 0.144-0.984v-2.88h0.816v4.38q0 0.228 0.012 0.588t0.036 0.648zm4.1326-4.38q0-0.228-0.012-0.588t-0.036-0.648h0.78q0.024 0.228 0.036 0.504t0.012 0.456h0.024q0.24-0.492 0.72-0.792 0.48-0.312 1.08-0.312 0.156 0 0.276 0.012 0.132 0.012 0.264 0.048l-0.108 0.768q-0.072-0.024-0.24-0.048t-0.336-0.024q-0.324 0-0.624 0.12t-0.528 0.384q-0.216 0.252-0.36 0.66-0.132 0.396-0.132 0.96v2.88h-0.816v-4.38zm6.4006 3.432v0.948h-0.816v-9.072h0.816v4.428h0.024q0.36-0.552 0.936-0.828 0.576-0.288 1.188-0.288 0.66 0 1.188 0.228 0.54 0.228 0.912 0.624 0.384 0.396 0.588 0.936 0.216 0.54 0.216 1.164t-0.216 1.164q-0.204 0.54-0.588 0.936-0.372 0.396-0.912 0.624-0.528 0.228-1.188 0.228-0.612 0-1.188-0.276t-0.936-0.816zm4.188-1.86q0-0.468-0.144-0.876-0.144-0.42-0.42-0.72-0.264-0.312-0.66-0.492t-0.9-0.18q-0.468 0-0.864 0.18-0.396 0.168-0.684 0.48-0.288 0.3-0.456 0.72-0.156 0.408-0.156 0.888t0.156 0.9q0.168 0.408 0.456 0.708t0.684 0.48q0.396 0.168 0.864 0.168 0.504 0 0.9-0.168 0.396-0.18 0.66-0.48 0.276-0.312 0.42-0.72 0.144-0.42 0.144-0.888zm7.9366 2.808q-0.024-0.228-0.036-0.504t-0.012-0.456h-0.024q-0.24 0.492-0.78 0.804-0.54 0.3-1.14 0.3-1.068 0-1.608-0.636-0.528-0.636-0.528-1.68v-3.444h0.816v3.108q0 0.444 0.072 0.804t0.24 0.624q0.18 0.252 0.468 0.396 0.3 0.144 0.744 0.144 0.324 0 0.624-0.132 0.312-0.132 0.552-0.396 0.24-0.276 0.384-0.684 0.144-0.42 0.144-0.984v-2.88h0.816v4.38q0 0.228 0.012 0.588t0.036 0.648zm-3.456-7.764q0-0.24 0.168-0.42 0.168-0.192 0.444-0.192t0.444 0.192q0.168 0.18 0.168 0.42t-0.168 0.432q-0.168 0.18-0.444 0.18t-0.444-0.18q-0.168-0.192-0.168-0.432zm2.304 0q0-0.24 0.168-0.42 0.168-0.192 0.444-0.192t0.444 0.192q0.168 0.18 0.168 0.42t-0.168 0.432q-0.168 0.18-0.444 0.18t-0.444-0.18q-0.168-0.192-0.168-0.432zm5.2846 3.384q0-0.228-0.012-0.588t-0.036-0.648h0.78q0.024 0.228 0.036 0.504t0.012 0.456h0.024q0.24-0.492 0.72-0.792 0.48-0.312 1.08-0.312 0.156 0 0.276 0.012 0.132 0.012 0.264 0.048l-0.108 0.768q-0.072-0.024-0.24-0.048t-0.336-0.024q-0.324 0-0.624 0.12t-0.528 0.384q-0.216 0.252-0.36 0.66-0.132 0.396-0.132 0.96v2.88h-0.816v-4.38zm10.925 1.572q0 0.636-0.228 1.176-0.216 0.54-0.612 0.936t-0.948 0.624q-0.552 0.216-1.212 0.216-0.648 0-1.2-0.216-0.552-0.228-0.948-0.624t-0.624-0.936q-0.216-0.54-0.216-1.176t0.216-1.176q0.228-0.54 0.624-0.936t0.948-0.612q0.552-0.228 1.2-0.228 0.66 0 1.212 0.228 0.552 0.216 0.948 0.612t0.612 0.936q0.228 0.54 0.228 1.176zm-0.864 0q0-0.468-0.156-0.876-0.144-0.42-0.42-0.72-0.276-0.312-0.672-0.492t-0.888-0.18-0.888 0.18q-0.384 0.18-0.66 0.492-0.276 0.3-0.432 0.72-0.144 0.408-0.144 0.876t0.144 0.888q0.156 0.408 0.432 0.72 0.276 0.3 0.66 0.48 0.396 0.168 0.888 0.168t0.888-0.168q0.396-0.18 0.672-0.48 0.276-0.312 0.42-0.72 0.156-0.42 0.156-0.888zm-96.208 11.187q-0.18-0.348-0.552-0.564-0.36-0.228-0.828-0.228-0.216 0-0.432 0.048t-0.384 0.156-0.276 0.276q-0.096 0.168-0.096 0.396 0 0.396 0.324 0.612 0.324 0.204 1.02 0.348 0.996 0.204 1.464 0.6 0.48 0.384 0.48 1.044 0 0.48-0.192 0.816-0.18 0.324-0.48 0.54-0.3 0.204-0.684 0.288-0.372 0.096-0.756 0.096-0.636 0-1.236-0.264t-0.984-0.828l0.648-0.48q0.216 0.372 0.636 0.624t0.924 0.252q0.264 0 0.504-0.048t0.42-0.168 0.288-0.3q0.108-0.192 0.108-0.468 0-0.444-0.432-0.66-0.42-0.228-1.224-0.42-0.252-0.06-0.54-0.144-0.276-0.096-0.516-0.264-0.24-0.18-0.396-0.444t-0.156-0.66q0-0.432 0.168-0.732 0.168-0.312 0.444-0.504 0.288-0.204 0.648-0.3t0.744-0.096q0.588 0 1.14 0.264t0.828 0.744zm7.6246-0.048q-0.204-0.324-0.6-0.528-0.384-0.216-0.84-0.216-0.492 0-0.888 0.18-0.396 0.168-0.684 0.48-0.276 0.3-0.432 0.72-0.144 0.408-0.144 0.888t0.144 0.888q0.156 0.408 0.432 0.72 0.276 0.3 0.672 0.48 0.396 0.168 0.888 0.168 0.54 0 0.912-0.204t0.612-0.528l0.612 0.456q-0.36 0.444-0.888 0.708-0.516 0.264-1.248 0.264-0.684 0-1.236-0.216-0.552-0.228-0.948-0.624-0.384-0.396-0.6-0.936t-0.216-1.176 0.216-1.176 0.6-0.936q0.396-0.396 0.948-0.612 0.552-0.228 1.236-0.228 0.564 0 1.14 0.252 0.588 0.24 0.948 0.72zm4.0606-0.36q0.228-0.492 0.756-0.78t1.128-0.288q1.068 0 1.596 0.636 0.54 0.636 0.54 1.68v3.444h-0.816v-3.108q0-0.444-0.072-0.804t-0.252-0.612q-0.168-0.264-0.468-0.408-0.288-0.144-0.732-0.144-0.324 0-0.636 0.132-0.3 0.132-0.54 0.408-0.24 0.264-0.384 0.684-0.144 0.408-0.144 0.972v2.88h-0.816v-9.072h0.816v4.38zm11.657 1.452q-0.036-0.792-0.516-1.308-0.468-0.528-1.344-0.528-0.408 0-0.756 0.156-0.348 0.144-0.612 0.408-0.264 0.252-0.42 0.588-0.156 0.324-0.18 0.684zm0.828 0.264q0 0.084 0 0.18t-0.012 0.204h-4.656q0.012 0.42 0.168 0.792t0.432 0.648 0.648 0.444q0.372 0.156 0.804 0.156 0.636 0 1.092-0.288 0.468-0.3 0.708-0.684l0.612 0.48q-0.504 0.636-1.116 0.912-0.6 0.276-1.296 0.276-0.624 0-1.164-0.216-0.528-0.228-0.912-0.624t-0.612-0.936q-0.216-0.54-0.216-1.176t0.216-1.176 0.6-0.936 0.9-0.612q0.516-0.228 1.116-0.228 0.66 0 1.164 0.228 0.504 0.216 0.84 0.6 0.336 0.372 0.504 0.876 0.18 0.504 0.18 1.08zm3.8326 2.976h-0.816v-9.072h0.816zm6.4126-4.284q-0.18-0.348-0.552-0.564-0.36-0.228-0.828-0.228-0.216 0-0.432 0.048t-0.384 0.156-0.276 0.276q-0.096 0.168-0.096 0.396 0 0.396 0.324 0.612 0.324 0.204 1.02 0.348 0.996 0.204 1.464 0.6 0.48 0.384 0.48 1.044 0 0.48-0.192 0.816-0.18 0.324-0.48 0.54-0.3 0.204-0.684 0.288-0.372 0.096-0.756 0.096-0.636 0-1.236-0.264t-0.984-0.828l0.648-0.48q0.216 0.372 0.636 0.624t0.924 0.252q0.264 0 0.504-0.048t0.42-0.168 0.288-0.3q0.108-0.192 0.108-0.468 0-0.444-0.432-0.66-0.42-0.228-1.224-0.42-0.252-0.06-0.54-0.144-0.276-0.096-0.516-0.264-0.24-0.18-0.396-0.444t-0.156-0.66q0-0.432 0.168-0.732 0.168-0.312 0.444-0.504 0.288-0.204 0.648-0.3t0.744-0.096q0.588 0 1.14 0.264t0.828 0.744z" style="white-space:pre" aria-label="architekturbüro
schels"/>
</svg>
