<?xml version="1.0" encoding="UTF-8"?>
<!-- Created with Inkscape (http://www.inkscape.org/) -->
<svg width="188mm" height="51mm" version="1.1" viewBox="0 0 188 51" xmlns="http://www.w3.org/2000/svg">
 <path d="m11.674 14.51q0-1.3162-0.69047-1.9635-0.69047-0.64732-2.0067-0.64732-0.90624 0-1.683 0.32366-0.77678 0.32366-1.3162 0.86309l-0.81993-0.97097q0.62574-0.62574 1.6399-1.0357 1.0357-0.40997 2.3303-0.40997 0.81993 0 1.532 0.23735 0.71205 0.21577 1.2515 0.66889t0.84151 1.1436q0.30208 0.69047 0.30208 1.6183v4.4233q0 0.58258 0.04315 1.2083 0.04316 0.62574 0.12946 1.0573h-1.3162q-0.06473-0.36681-0.10789-0.79835-0.04315-0.43155-0.04315-0.84152h-0.04316q-0.69047 1.0141-1.5751 1.4672-0.86309 0.43155-2.093 0.43155-0.58258 0-1.2083-0.17262-0.60416-0.15104-1.122-0.51785-0.49628-0.36681-0.84151-0.9494-0.32366-0.58258-0.32366-1.4241 0-1.1652 0.58258-1.8341 0.60416-0.69047 1.5967-1.0141 0.99255-0.34524 2.2656-0.43154 1.2946-0.10789 2.6756-0.10789zm-0.43154 1.4672q-0.90624 0-1.8341 0.08631-0.90624 0.06473-1.6614 0.30208-0.73362 0.21577-1.2083 0.64732-0.4747 0.43154-0.4747 1.1436 0 0.53943 0.1942 0.90624 0.21577 0.36681 0.56101 0.60416 0.34523 0.21577 0.7552 0.32366 0.43154 0.0863 0.86309 0.0863 0.77678 0 1.3809-0.25893 0.60416-0.2805 1.0141-0.73362 0.40997-0.4747 0.62574-1.0789 0.21577-0.60416 0.21577-1.2731v-0.7552zm7.8192-2.8266q0-0.40997-0.02158-1.0573t-0.06473-1.1652h1.4025q0.04315 0.40997 0.06473 0.90624 0.02158 0.49628 0.02158 0.81993h0.04315q0.43154-0.88466 1.2946-1.4241 0.86309-0.56101 1.9419-0.56101 0.2805 0 0.49628 0.02158 0.23735 0.02158 0.4747 0.08631l-0.1942 1.3809q-0.12946-0.04315-0.43154-0.08631-0.30208-0.04315-0.60416-0.04315-0.58258 0-1.122 0.21577t-0.9494 0.69047q-0.38839 0.45312-0.64732 1.1867-0.23735 0.71205-0.23735 1.7262v5.1785h-1.4672zm16.882 0.08631q-0.36681-0.58258-1.0789-0.9494-0.69047-0.38839-1.5104-0.38839-0.88466 0-1.5967 0.32366-0.71205 0.30208-1.2299 0.86309-0.49628 0.53943-0.77678 1.2946-0.25893 0.73362-0.25893 1.5967t0.25893 1.5967q0.2805 0.73362 0.77678 1.2946 0.49628 0.53943 1.2083 0.86309 0.71205 0.30208 1.5967 0.30208 0.97097 0 1.6399-0.36681 0.66889-0.36681 1.1004-0.9494l1.1004 0.81993q-0.64732 0.79835-1.5967 1.2731-0.92782 0.4747-2.244 0.4747-1.2299 0-2.2225-0.38839-0.99255-0.40997-1.7046-1.122-0.69047-0.71205-1.0789-1.683-0.38839-0.97097-0.38839-2.1146 0-1.1436 0.38839-2.1146 0.38839-0.97097 1.0789-1.683 0.71205-0.71205 1.7046-1.1004 0.99255-0.40997 2.2225-0.40997 1.0141 0 2.0498 0.45312 1.0573 0.43154 1.7046 1.2946zm7.3014-0.64732q0.40997-0.88466 1.3594-1.4025t2.0283-0.51785q1.9204 0 2.8698 1.1436 0.97097 1.1436 0.97097 3.0208v6.1927h-1.4672v-5.5885q0-0.79836-0.12946-1.4457-0.12946-0.64732-0.45312-1.1004-0.30208-0.4747-0.84151-0.73362-0.51785-0.25893-1.3162-0.25893-0.58258 0-1.1436 0.23735-0.53943 0.23735-0.97097 0.73362-0.43154 0.4747-0.69047 1.2299-0.25893 0.73362-0.25893 1.7478v5.1785h-1.4672v-16.312h1.4672v7.8757zm14.745 8.4367h-1.4672v-10.098h1.4672zm0.30208-13.982q0 0.45312-0.32366 0.7552-0.32366 0.2805-0.71205 0.2805-0.38839 0-0.71205-0.2805-0.32366-0.30208-0.32366-0.7552t0.32366-0.73362q0.32366-0.30208 0.71205-0.30208 0.38839 0 0.71205 0.30208 0.32366 0.2805 0.32366 0.73362zm10.387 5.1138h-2.8482v5.8906q0 0.56101 0.10789 0.92782 0.10789 0.36681 0.30208 0.58258 0.21577 0.1942 0.49628 0.2805 0.2805 0.06473 0.60416 0.06473 0.30208 0 0.62574-0.08631 0.34524-0.08631 0.64732-0.23735l0.06473 1.2731q-0.38839 0.15105-0.81993 0.21578-0.40997 0.0863-0.90624 0.0863-0.40997 0-0.86309-0.10789t-0.84151-0.40997q-0.38839-0.30208-0.64732-0.81993-0.23735-0.51785-0.23735-1.3594v-6.3005h-2.093v-1.2299h2.093v-2.8482h1.4672v2.8482h2.8482zm12.221 3.0424q-0.06473-1.4241-0.92782-2.3519-0.84151-0.9494-2.4166-0.9494-0.73362 0-1.3594 0.2805-0.62574 0.25893-1.1004 0.73362-0.4747 0.45312-0.7552 1.0573-0.2805 0.58258-0.32366 1.2299zm1.4888 0.4747q0 0.15104 0 0.32366 0 0.17262-0.02158 0.36681h-8.372q0.02158 0.7552 0.30208 1.4241 0.2805 0.66889 0.77678 1.1652 0.49628 0.49628 1.1652 0.79836 0.66889 0.2805 1.4457 0.2805 1.1436 0 1.9635-0.51785 0.84151-0.53943 1.2731-1.2299l1.1004 0.86309q-0.90624 1.1436-2.0067 1.6399-1.0789 0.49628-2.3303 0.49628-1.122 0-2.093-0.38839-0.9494-0.40997-1.6399-1.122-0.69047-0.71205-1.1004-1.683-0.38839-0.97097-0.38839-2.1146 0-1.1436 0.38839-2.1146 0.38839-0.97097 1.0789-1.683 0.69047-0.71205 1.6183-1.1004 0.92782-0.40997 2.0067-0.40997 1.1867 0 2.093 0.40997 0.90624 0.38839 1.5104 1.0789 0.60416 0.66889 0.90624 1.5751 0.32366 0.90624 0.32366 1.9419zm6.8914-0.1942h0.0647l4.6606-4.5528h2.1146l-5.0922 4.6175 5.61 5.4806h-2.1577l-5.1353-5.308h-0.0647v5.308h-1.4672v-16.312h1.4672zm16.277-3.3229h-2.8482v5.8906q0 0.56101 0.10789 0.92782 0.10789 0.36681 0.30208 0.58258 0.21577 0.1942 0.49628 0.2805 0.2805 0.06473 0.60416 0.06473 0.30208 0 0.62574-0.08631 0.34523-0.08631 0.64731-0.23735l0.0647 1.2731q-0.38839 0.15105-0.81993 0.21578-0.40997 0.0863-0.90624 0.0863-0.40997 0-0.86309-0.10789t-0.84151-0.40997-0.64732-0.81993q-0.23735-0.51785-0.23735-1.3594v-6.3005h-2.093v-1.2299h2.093v-2.8482h1.4672v2.8482h2.8482zm11.854 8.8682q-0.0432-0.40996-0.0647-0.90624-0.0216-0.49628-0.0216-0.81993h-0.0432q-0.43154 0.88466-1.4025 1.4457-0.97098 0.53943-2.0498 0.53943-1.9204 0-2.8913-1.1436-0.9494-1.1436-0.9494-3.0208v-6.1927h1.4672v5.5885q0 0.79836 0.12946 1.4457 0.12947 0.64732 0.43155 1.122 0.32366 0.45312 0.84151 0.71205 0.53943 0.25893 1.3378 0.25893 0.58259 0 1.122-0.23735 0.56101-0.23735 0.99255-0.71205 0.43154-0.49628 0.69047-1.2299 0.25893-0.7552 0.25893-1.7693v-5.1785h1.4672v7.8757q0 0.40997 0.0216 1.0573 0.0216 0.64732 0.0647 1.1652zm7.4308-7.8757q0-0.40997-0.0216-1.0573t-0.0647-1.1652h1.4025q0.0432 0.40997 0.0647 0.90624 0.0216 0.49628 0.0216 0.81993h0.0432q0.43154-0.88466 1.2946-1.4241 0.86309-0.56101 1.942-0.56101 0.2805 0 0.49627 0.02158 0.23735 0.02158 0.4747 0.08631l-0.19419 1.3809q-0.12947-0.04315-0.43155-0.08631-0.30208-0.04315-0.60416-0.04315-0.58258 0-1.122 0.21577t-0.9494 0.69047q-0.38839 0.45312-0.64732 1.1867-0.23734 0.71205-0.23734 1.7262v5.1785h-1.4672zm11.509 6.1711v1.7046h-1.4672v-16.312h1.4672v7.962h0.0432q0.64732-0.99255 1.683-1.4888 1.0357-0.51785 2.1361-0.51785 1.1868 0 2.1362 0.40997 0.97097 0.40997 1.6399 1.122 0.69047 0.71205 1.0573 1.683 0.38839 0.97097 0.38839 2.093 0 1.122-0.38839 2.093-0.36682 0.97097-1.0573 1.683-0.66889 0.71205-1.6399 1.122-0.9494 0.40997-2.1362 0.40997-1.1004 0-2.1361-0.49628-1.0357-0.49627-1.683-1.4672zm7.5304-3.3445q0-0.84151-0.25893-1.5751-0.25893-0.7552-0.7552-1.2946-0.4747-0.56101-1.1868-0.88466-0.71204-0.32366-1.6183-0.32366-0.84151 0-1.5536 0.32366-0.71204 0.30208-1.2299 0.86309-0.51785 0.53943-0.81993 1.2946-0.2805 0.73362-0.2805 1.5967t0.2805 1.6183q0.30208 0.73362 0.81993 1.2731 0.51786 0.53943 1.2299 0.86309 0.71205 0.30208 1.5536 0.30208 0.90625 0 1.6183-0.30208 0.71205-0.32366 1.1868-0.86309 0.49627-0.56101 0.7552-1.2946 0.25893-0.7552 0.25893-1.5967zm14.271 5.0491q-0.0432-0.40996-0.0647-0.90624-0.0216-0.49628-0.0216-0.81993h-0.0432q-0.43154 0.88466-1.4025 1.4457-0.97098 0.53943-2.0498 0.53943-1.9204 0-2.8913-1.1436-0.9494-1.1436-0.9494-3.0208v-6.1927h1.4672v5.5885q0 0.79836 0.12946 1.4457 0.12947 0.64732 0.43155 1.122 0.32366 0.45312 0.84151 0.71205 0.53943 0.25893 1.3378 0.25893 0.58258 0 1.122-0.23735 0.56101-0.23735 0.99255-0.71205 0.43154-0.49628 0.69047-1.2299 0.25893-0.7552 0.25893-1.7693v-5.1785h1.4672v7.8757q0 0.40997 0.0216 1.0573 0.0216 0.64732 0.0647 1.1652zm-6.2142-13.96q0-0.43154 0.30209-0.7552 0.30208-0.34524 0.79835-0.34524 0.49628 0 0.79836 0.34524 0.30208 0.32366 0.30208 0.7552t-0.30208 0.77678q-0.30208 0.32366-0.79836 0.32366-0.49627 0-0.79835-0.32366-0.30209-0.34524-0.30209-0.77678zm4.1428 0q0-0.43154 0.30208-0.7552 0.30208-0.34524 0.79835-0.34524 0.49628 0 0.79836 0.34524 0.30208 0.32366 0.30208 0.7552t-0.30208 0.77678q-0.30208 0.32366-0.79836 0.32366-0.49627 0-0.79835-0.32366-0.30208-0.34524-0.30208-0.77678zm9.5022 6.0848q0-0.40997-0.0216-1.0573t-0.0647-1.1652h1.4025q0.0431 0.40997 0.0647 0.90624 0.0216 0.49628 0.0216 0.81993h0.0432q0.43154-0.88466 1.2946-1.4241 0.86309-0.56101 1.942-0.56101 0.2805 0 0.49627 0.02158 0.23735 0.02158 0.4747 0.08631l-0.19419 1.3809q-0.12947-0.04315-0.43155-0.08631-0.30208-0.04315-0.60416-0.04315-0.58258 0-1.122 0.21577t-0.9494 0.69047q-0.38839 0.45312-0.64732 1.1867-0.23734 0.71205-0.23734 1.7262v5.1785h-1.4672zm19.644 2.8266q0 1.1436-0.40997 2.1146-0.38839 0.97097-1.1004 1.683-0.71204 0.71204-1.7046 1.122-0.99256 0.38839-2.1793 0.38839-1.1652 0-2.1577-0.38839-0.99255-0.40997-1.7046-1.122-0.71205-0.71205-1.122-1.683-0.38839-0.97097-0.38839-2.1146 0-1.1436 0.38839-2.1146 0.40996-0.97097 1.122-1.683 0.71205-0.71205 1.7046-1.1004 0.99255-0.40997 2.1577-0.40997 1.1867 0 2.1793 0.40997 0.99255 0.38839 1.7046 1.1004 0.71205 0.71205 1.1004 1.683 0.40997 0.97097 0.40997 2.1146zm-1.5536 0q0-0.84151-0.2805-1.5751-0.25893-0.7552-0.75521-1.2946-0.49627-0.56101-1.2083-0.88466t-1.5967-0.32366q-0.88467 0-1.5967 0.32366-0.69047 0.32366-1.1868 0.88466-0.49628 0.53943-0.77678 1.2946-0.25893 0.73362-0.25893 1.5751 0 0.84151 0.25893 1.5967 0.2805 0.73362 0.77678 1.2946 0.49628 0.53943 1.1868 0.86309 0.71204 0.30208 1.5967 0.30208 0.88466 0 1.5967-0.30208 0.71205-0.32366 1.2083-0.86309 0.49628-0.56101 0.75521-1.2946 0.2805-0.7552 0.2805-1.5967zm-172.99 20.115q-0.32366-0.62574-0.99255-1.0141-0.64732-0.40996-1.4888-0.40996-0.38839 0-0.77678 0.0863-0.38839 0.0863-0.69047 0.2805-0.30208 0.19419-0.49628 0.49628-0.17262 0.30208-0.17262 0.71204 0 0.71205 0.58258 1.1004 0.58258 0.36681 1.8341 0.62574 1.7909 0.36681 2.6324 1.0789 0.86309 0.69047 0.86309 1.8772 0 0.86308-0.34524 1.4672-0.32366 0.58259-0.86309 0.97098-0.53943 0.36681-1.2299 0.51785-0.66889 0.17262-1.3594 0.17262-1.1436 0-2.2225-0.4747t-1.7693-1.4888l1.1652-0.86308q0.38839 0.66889 1.1436 1.122 0.7552 0.45312 1.6614 0.45312 0.4747 0 0.90624-0.0863t0.7552-0.30208q0.32366-0.21577 0.51785-0.53943 0.1942-0.34523 0.1942-0.84151 0-0.79836-0.77678-1.1867-0.7552-0.40997-2.2009-0.75521-0.45312-0.10788-0.97097-0.25892-0.49627-0.17262-0.92782-0.4747-0.43154-0.32366-0.71205-0.79836-0.2805-0.4747-0.2805-1.1867 0-0.77678 0.30208-1.3162 0.30208-0.56101 0.79836-0.90625 0.51785-0.36681 1.1652-0.53943 0.64732-0.17261 1.3378-0.17261 1.0573 0 2.0498 0.4747 0.99255 0.47469 1.4888 1.3378zm13.71-0.0863q-0.36681-0.58258-1.0789-0.94939-0.69047-0.38839-1.5104-0.38839-0.88467 0-1.5967 0.32366-0.71205 0.30208-1.2299 0.86308-0.49628 0.53943-0.77678 1.2946-0.25893 0.73362-0.25893 1.5967t0.25893 1.5967q0.2805 0.73363 0.77678 1.2946 0.49628 0.53943 1.2083 0.86309 0.71205 0.30208 1.5967 0.30208 0.97097 0 1.6399-0.36681 0.66889-0.36681 1.1004-0.9494l1.1004 0.81994q-0.64732 0.79835-1.5967 1.273-0.92782 0.4747-2.244 0.4747-1.2299 0-2.2225-0.38839-0.99255-0.40997-1.7046-1.122-0.69047-0.71205-1.0789-1.683-0.38839-0.97097-0.38839-2.1146t0.38839-2.1146q0.38839-0.97097 1.0789-1.683 0.71205-0.71205 1.7046-1.1004 0.99255-0.40996 2.2225-0.40996 1.0141 0 2.0498 0.45312 1.0573 0.43154 1.7046 1.2946zm7.3014-0.64731q0.40997-0.88467 1.3594-1.4025t2.0283-0.51785q1.9204 0 2.8698 1.1436 0.97097 1.1436 0.97097 3.0208v6.1926h-1.4672v-5.5885q0-0.79836-0.12946-1.4457-0.12946-0.64732-0.45312-1.1004-0.30208-0.4747-0.84151-0.73363-0.51785-0.25892-1.3162-0.25892-0.58258 0-1.1436 0.23735-0.53943 0.23735-0.97097 0.73362-0.43154 0.4747-0.69047 1.2299-0.25893 0.73363-0.25893 1.7478v5.1785h-1.4672v-16.312h1.4672v7.8757zm20.96 2.6108q-0.06473-1.4241-0.92782-2.3519-0.84151-0.94939-2.4166-0.94939-0.73362 0-1.3594 0.2805-0.62574 0.25893-1.1004 0.73363-0.4747 0.45312-0.7552 1.0573-0.2805 0.58258-0.32366 1.2299zm1.4888 0.4747q0 0.15104 0 0.32366 0 0.17261-0.02158 0.36681h-8.372q0.02158 0.7552 0.30208 1.4241 0.2805 0.6689 0.77678 1.1652 0.49628 0.49628 1.1652 0.79836 0.66889 0.2805 1.4457 0.2805 1.1436 0 1.9635-0.51785 0.84151-0.53943 1.2731-1.2299l1.1004 0.86309q-0.90624 1.1436-2.0067 1.6399-1.0789 0.49628-2.3303 0.49628-1.122 0-2.093-0.38839-0.9494-0.40997-1.6399-1.122-0.69047-0.71205-1.1004-1.683-0.38839-0.97097-0.38839-2.1146t0.38839-2.1146q0.38839-0.97097 1.0789-1.683 0.69047-0.71205 1.6183-1.1004 0.92782-0.40996 2.0067-0.40996 1.1867 0 2.093 0.40996 0.90624 0.38839 1.5104 1.0789 0.60416 0.6689 0.90624 1.5751 0.32366 0.90624 0.32366 1.942zm6.8914 5.3511h-1.4672v-16.312h1.4672zm11.53-7.7031q-0.32366-0.62574-0.99255-1.0141-0.64732-0.40996-1.4888-0.40996-0.38839 0-0.77678 0.0863-0.38839 0.0863-0.69047 0.2805-0.30208 0.19419-0.49628 0.49628-0.17262 0.30208-0.17262 0.71204 0 0.71205 0.58258 1.1004 0.58258 0.36681 1.8341 0.62574 1.7909 0.36681 2.6324 1.0789 0.86309 0.69047 0.86309 1.8772 0 0.86308-0.34524 1.4672-0.32366 0.58259-0.86309 0.97098-0.53943 0.36681-1.2299 0.51785-0.66889 0.17262-1.3594 0.17262-1.1436 0-2.2225-0.4747t-1.7693-1.4888l1.1652-0.86308q0.38839 0.66889 1.1436 1.122t1.6614 0.45312q0.4747 0 0.90624-0.0863t0.7552-0.30208q0.32366-0.21577 0.51785-0.53943 0.1942-0.34523 0.1942-0.84151 0-0.79836-0.77678-1.1867-0.7552-0.40997-2.2009-0.75521-0.45312-0.10788-0.97097-0.25892-0.49628-0.17262-0.92782-0.4747-0.43154-0.32366-0.71205-0.79836-0.2805-0.4747-0.2805-1.1867 0-0.77678 0.30208-1.3162 0.30208-0.56101 0.79836-0.90625 0.51785-0.36681 1.1652-0.53943 0.64732-0.17261 1.3378-0.17261 1.0573 0 2.0498 0.4747 0.99255 0.47469 1.4888 1.3378z" stroke-width="1.7981" style="white-space:pre" aria-label="architekturbüro schels"/>
</svg>
