<svg viewBox="0 0 300 300" class="logo_top">
	<path class="st0" d="M181.08,99.02c-3.23-4.49-7.36-8.1-12.41-10.83c-5.05-2.73-11.15-4.1-18.3-4.1c-3.65,0-7.36,0.56-11.15,1.68
		c-3.79,1.12-7.22,2.84-10.31,5.15c-3.09,2.31-5.57,5.23-7.47,8.73c-1.89,3.51-2.84,7.64-2.84,12.41c0,4.77,0.91,8.7,2.72,11.78
		c1.82,3.09,4.23,5.71,7.24,7.89c3.01,2.18,6.43,3.96,10.28,5.36c3.85,1.4,7.86,2.81,12.06,4.21c5.17,1.68,10.38,3.51,15.62,5.47
		c5.25,1.97,9.96,4.52,14.16,7.68c4.19,3.16,7.62,7.15,10.28,11.99c2.65,4.84,3.99,10.97,3.99,18.4c0,7.43-1.42,13.85-4.25,19.25
		c-2.84,5.4-6.52,9.85-11.04,13.36c-4.53,3.51-9.7,6.1-15.52,7.78c-5.82,1.68-11.67,2.52-17.56,2.52c-4.49,0-8.97-0.46-13.46-1.37
		c-4.49-0.91-8.76-2.28-12.83-4.1c-4.07-1.82-7.85-4.13-11.36-6.94c-3.51-2.8-6.59-6.03-9.25-9.67l13.04-9.67
		c3.22,5.33,7.75,9.78,13.57,13.36c5.82,3.58,12.65,5.36,20.51,5.36c3.79,0,7.64-0.59,11.57-1.79c3.92-1.19,7.46-3.01,10.62-5.47
		c3.15-2.45,5.75-5.47,7.78-9.04c2.03-3.58,3.05-7.75,3.05-12.51c0-5.19-1.02-9.5-3.05-12.93c-2.03-3.43-4.73-6.31-8.1-8.62
		s-7.22-4.24-11.57-5.78c-4.35-1.54-8.9-3.08-13.67-4.63c-4.91-1.54-9.75-3.29-14.51-5.26c-4.77-1.96-9.04-4.52-12.83-7.68
		c-3.79-3.15-6.84-7.05-9.15-11.67c-2.31-4.63-3.47-10.31-3.47-17.04c0-7.15,1.44-13.32,4.31-18.51c2.87-5.19,6.63-9.46,11.25-12.83
		s9.74-5.82,15.35-7.36c5.61-1.54,11.15-2.31,16.62-2.31c10.1,0,18.72,1.79,25.87,5.36c7.15,3.58,12.55,7.82,16.2,12.72
		L181.08,99.02z"/>
<polyline class="st1" points="83.03,150 7,150 7,7 293,7 293,78.5 "/>
<polyline class="st1" points="216.97,150 293,150 293,293 7,293 7,221.5 "/>
</svg>
